# xmcd
#
# Track frame offsets:
#	150
#	12558
#	27682
#	44034
#	58960
#	75555
#	92800
#	107762
#	124209
#	142313
#	159180
#	177210
#	195866
#	210180
#	223360
#
# Disc length: 3277 seconds
#
# Revision: 0
# Processed by: cddbd v1.4PL0 Copyright (c) Steve Scherf et al.
# Submitted via: dBpowerAMP V4.0
#
DISCID=dd0ccb0f
DTITLE=100 Folk Celsius - ... a dalok megmaradtak
DYEAR=2001
DGENRE=Country
TTITLE0=Gyere, gyere ki a hegyoldalba
TTITLE1=Régi csibészek
TTITLE2=Kéglidal
TTITLE3=Jöjj vissza vándor
TTITLE4=Mondd, hogy nem haragszol rám
TTITLE5=Vándorének
TTITLE6=Citromízû banán
TTITLE7=Ne vágj ki minden fát
TTITLE8=Szerelemvonat
TTITLE9=Kövér a nap
TTITLE10=Szállj fel magasra
TTITLE11=Kék színû virág
TTITLE12=Te és én
TTITLE13=Postakocsi
TTITLE14=Drága otthon
EXTD=
EXTT0=
EXTT1=
EXTT2=
EXTT3=
EXTT4=
EXTT5=
EXTT6=
EXTT7=
EXTT8=
EXTT9=
EXTT10=
EXTT11=
EXTT12=
EXTT13=
EXTT14=
PLAYORDER=
